<?xml version="1.0" encoding="UTF-8"?>
<svg xmlns="http://www.w3.org/2000/svg" xmlns:xlink="http://www.w3.org/1999/xlink" viewBox="0 0 60 60" width="60px" height="60px">
<g id="surface78135084">
<path style=" stroke:none;fill-rule:nonzero;fill:rgb(63.137257%,0%,0%);fill-opacity:1;" d="M 30 6 C 16.746094 6 6 16.746094 6 30 C 6 41.246094 13.746094 50.65625 24.183594 53.261719 C 24.074219 52.9375 24 52.5625 24 52.097656 L 24 47.992188 C 23.027344 47.992188 21.394531 47.992188 20.984375 47.992188 C 19.34375 47.992188 17.882812 47.289062 17.175781 45.976562 C 16.386719 44.515625 16.253906 42.289062 14.304688 40.921875 C 13.726562 40.46875 14.167969 39.953125 14.832031 40.019531 C 16.0625 40.371094 17.082031 41.214844 18.042969 42.464844 C 19 43.71875 19.449219 44.003906 21.234375 44.003906 C 22.101562 44.003906 23.398438 43.953125 24.617188 43.761719 C 25.273438 42.09375 26.40625 40.5625 27.792969 39.835938 C 19.800781 39.015625 15.988281 35.039062 15.988281 29.640625 C 15.988281 27.316406 16.976562 25.070312 18.660156 23.175781 C 18.105469 21.292969 17.414062 17.460938 18.871094 16 C 22.464844 16 24.640625 18.332031 25.164062 18.960938 C 26.953125 18.347656 28.921875 18 30.992188 18 C 33.0625 18 35.039062 18.347656 36.835938 18.964844 C 37.351562 18.339844 39.527344 16 43.132812 16 C 44.59375 17.460938 43.894531 21.3125 43.335938 23.1875 C 45.007812 25.078125 45.992188 27.320312 45.992188 29.640625 C 45.992188 35.035156 42.183594 39.007812 34.203125 39.835938 C 36.398438 40.980469 38 44.203125 38 46.628906 L 38 52.097656 C 38 52.304688 37.957031 52.453125 37.929688 52.632812 C 47.285156 49.355469 54 40.472656 54 30 C 54 16.746094 43.253906 6 30 6 Z M 30 6 "/>
</g>
</svg>
